<svg width="24" height="24" viewBox="0 0 24 24" fill="none" xmlns="http://www.w3.org/2000/svg">
<path fill-rule="evenodd" clip-rule="evenodd" d="M17 5.41421L17 15C17 15.5523 16.5523 16 16 16C15.4477 16 15 15.5523 15 15L15 5.41421L12.7071 7.70711C12.3166 8.09763 11.6834 8.09763 11.2929 7.70711C10.9024 7.31658 10.9024 6.68342 11.2929 6.29289L15.2929 2.29289C15.6834 1.90237 16.3166 1.90237 16.7071 2.29289L20.7071 6.29289C21.0976 6.68342 21.0976 7.31658 20.7071 7.70711C20.3166 8.09763 19.6834 8.09763 19.2929 7.70711L17 5.41421Z" fill="#1F263C"/>
<path fill-rule="evenodd" clip-rule="evenodd" d="M7 18.5858L7 9C7 8.44772 7.44772 8 8 8C8.55228 8 9 8.44772 9 9L9 18.5858L11.2929 16.2929C11.6834 15.9024 12.3166 15.9024 12.7071 16.2929C13.0976 16.6834 13.0976 17.3166 12.7071 17.7071L8.70711 21.7071C8.31658 22.0976 7.68342 22.0976 7.29289 21.7071L3.29289 17.7071C2.90237 17.3166 2.90237 16.6834 3.29289 16.2929C3.68342 15.9024 4.31658 15.9024 4.70711 16.2929L7 18.5858Z" fill="#ACB3DA"/>
</svg>
