<svg width="24" height="24" viewBox="0 0 24 24" fill="none" xmlns="http://www.w3.org/2000/svg">
<path fill-rule="evenodd" clip-rule="evenodd" d="M10 17C13.866 17 17 13.866 17 10C17 6.13401 13.866 3 10 3C6.13401 3 3 6.13401 3 10C3 13.866 6.13401 17 10 17Z" fill="#ACB3DA"/>
<path fill-rule="evenodd" clip-rule="evenodd" d="M16.3199 14.9056L17.4165 16.0023C17.8277 15.9795 18.2465 16.1252 18.5607 16.4393L21.5607 19.4393C22.1464 20.0251 22.1464 20.9749 21.5607 21.5607C20.9749 22.1464 20.0251 22.1464 19.4393 21.5607L16.4393 18.5607C16.1252 18.2465 15.9795 17.8277 16.0023 17.4165L14.9056 16.3199C13.551 17.3729 11.8487 18 10 18C5.58172 18 2 14.4183 2 10C2 5.58172 5.58172 2 10 2C14.4183 2 18 5.58172 18 10C18 11.8487 17.3729 13.551 16.3199 14.9056ZM10 16C13.3137 16 16 13.3137 16 10C16 6.68629 13.3137 4 10 4C6.68629 4 4 6.68629 4 10C4 13.3137 6.68629 16 10 16Z" fill="#1F263C"/>
</svg>
